<?xml version="1.0" encoding="utf-8" standalone="no"?>
<!DOCTYPE svg PUBLIC "-//W3C//DTD SVG 1.1//EN"
  "http://www.w3.org/Graphics/SVG/1.1/DTD/svg11.dtd">
<svg xmlns:xlink="http://www.w3.org/1999/xlink" width="460.8pt" height="345.6pt" viewBox="0 0 460.8 345.6" xmlns="http://www.w3.org/2000/svg" version="1.1">
 <metadata>
  <rdf:RDF xmlns:dc="http://purl.org/dc/elements/1.1/" xmlns:cc="http://creativecommons.org/ns#" xmlns:rdf="http://www.w3.org/1999/02/22-rdf-syntax-ns#">
   <cc:Work>
    <dc:type rdf:resource="http://purl.org/dc/dcmitype/StillImage"/>
    <dc:date>2025-02-18T21:56:56.385625</dc:date>
    <dc:format>image/svg+xml</dc:format>
    <dc:creator>
     <cc:Agent>
      <dc:title>Matplotlib v3.7.2, https://matplotlib.org/</dc:title>
     </cc:Agent>
    </dc:creator>
   </cc:Work>
  </rdf:RDF>
 </metadata>
 <defs>
  <style type="text/css">*{stroke-linejoin: round; stroke-linecap: butt}</style>
 </defs>
 <g id="figure_1">
  <g id="patch_1">
   <path d="M 0 345.6 
L 460.8 345.6 
L 460.8 0 
L 0 0 
z
" style="fill: #ffffff"/>
  </g>
  <g id="axes_1">
   <g id="patch_2">
    <path d="M 57.6 307.584 
L 414.72 307.584 
L 414.72 41.472 
L 57.6 41.472 
z
" style="fill: #ffffff"/>
   </g>
   <g id="patch_3">
    <path d="M 104.330499 307.584 
L 106.967089 307.584 
L 106.967089 292.290207 
L 104.330499 292.290207 
z
" clip-path="url(#p369a40d660)" style="fill: #1f77b4; opacity: 0.4"/>
   </g>
   <g id="patch_4">
    <path d="M 106.967089 307.584 
L 109.603679 307.584 
L 109.603679 307.584 
L 106.967089 307.584 
z
" clip-path="url(#p369a40d660)" style="fill: #1f77b4; opacity: 0.4"/>
   </g>
   <g id="patch_5">
    <path d="M 109.603679 307.584 
L 112.240269 307.584 
L 112.240269 307.584 
L 109.603679 307.584 
z
" clip-path="url(#p369a40d660)" style="fill: #1f77b4; opacity: 0.4"/>
   </g>
   <g id="patch_6">
    <path d="M 112.240269 307.584 
L 114.876859 307.584 
L 114.876859 307.584 
L 112.240269 307.584 
z
" clip-path="url(#p369a40d660)" style="fill: #1f77b4; opacity: 0.4"/>
   </g>
   <g id="patch_7">
    <path d="M 114.876859 307.584 
L 117.513449 307.584 
L 117.513449 307.584 
L 114.876859 307.584 
z
" clip-path="url(#p369a40d660)" style="fill: #1f77b4; opacity: 0.4"/>
   </g>
   <g id="patch_8">
    <path d="M 117.513449 307.584 
L 120.150039 307.584 
L 120.150039 307.584 
L 117.513449 307.584 
z
" clip-path="url(#p369a40d660)" style="fill: #1f77b4; opacity: 0.4"/>
   </g>
   <g id="patch_9">
    <path d="M 120.150039 307.584 
L 122.786629 307.584 
L 122.786629 307.584 
L 120.150039 307.584 
z
" clip-path="url(#p369a40d660)" style="fill: #1f77b4; opacity: 0.4"/>
   </g>
   <g id="patch_10">
    <path d="M 122.786629 307.584 
L 125.423219 307.584 
L 125.423219 307.584 
L 122.786629 307.584 
z
" clip-path="url(#p369a40d660)" style="fill: #1f77b4; opacity: 0.4"/>
   </g>
   <g id="patch_11">
    <path d="M 125.423219 307.584 
L 128.059809 307.584 
L 128.059809 307.584 
L 125.423219 307.584 
z
" clip-path="url(#p369a40d660)" style="fill: #1f77b4; opacity: 0.4"/>
   </g>
   <g id="patch_12">
    <path d="M 128.059809 307.584 
L 130.696399 307.584 
L 130.696399 307.584 
L 128.059809 307.584 
z
" clip-path="url(#p369a40d660)" style="fill: #1f77b4; opacity: 0.4"/>
   </g>
   <g id="patch_13">
    <path d="M 130.696399 307.584 
L 133.332989 307.584 
L 133.332989 307.584 
L 130.696399 307.584 
z
" clip-path="url(#p369a40d660)" style="fill: #1f77b4; opacity: 0.4"/>
   </g>
   <g id="patch_14">
    <path d="M 133.332989 307.584 
L 135.969579 307.584 
L 135.969579 307.584 
L 133.332989 307.584 
z
" clip-path="url(#p369a40d660)" style="fill: #1f77b4; opacity: 0.4"/>
   </g>
   <g id="patch_15">
    <path d="M 135.969579 307.584 
L 138.606169 307.584 
L 138.606169 307.584 
L 135.969579 307.584 
z
" clip-path="url(#p369a40d660)" style="fill: #1f77b4; opacity: 0.4"/>
   </g>
   <g id="patch_16">
    <path d="M 138.606169 307.584 
L 141.242759 307.584 
L 141.242759 307.584 
L 138.606169 307.584 
z
" clip-path="url(#p369a40d660)" style="fill: #1f77b4; opacity: 0.4"/>
   </g>
   <g id="patch_17">
    <path d="M 141.242759 307.584 
L 143.879349 307.584 
L 143.879349 307.584 
L 141.242759 307.584 
z
" clip-path="url(#p369a40d660)" style="fill: #1f77b4; opacity: 0.4"/>
   </g>
   <g id="patch_18">
    <path d="M 143.879349 307.584 
L 146.515939 307.584 
L 146.515939 307.584 
L 143.879349 307.584 
z
" clip-path="url(#p369a40d660)" style="fill: #1f77b4; opacity: 0.4"/>
   </g>
   <g id="patch_19">
    <path d="M 146.515939 307.584 
L 149.152529 307.584 
L 149.152529 307.584 
L 146.515939 307.584 
z
" clip-path="url(#p369a40d660)" style="fill: #1f77b4; opacity: 0.4"/>
   </g>
   <g id="patch_20">
    <path d="M 149.152529 307.584 
L 151.789119 307.584 
L 151.789119 307.584 
L 149.152529 307.584 
z
" clip-path="url(#p369a40d660)" style="fill: #1f77b4; opacity: 0.4"/>
   </g>
   <g id="patch_21">
    <path d="M 151.789119 307.584 
L 154.425709 307.584 
L 154.425709 307.584 
L 151.789119 307.584 
z
" clip-path="url(#p369a40d660)" style="fill: #1f77b4; opacity: 0.4"/>
   </g>
   <g id="patch_22">
    <path d="M 154.425709 307.584 
L 157.062299 307.584 
L 157.062299 307.584 
L 154.425709 307.584 
z
" clip-path="url(#p369a40d660)" style="fill: #1f77b4; opacity: 0.4"/>
   </g>
   <g id="patch_23">
    <path d="M 157.062299 307.584 
L 159.698889 307.584 
L 159.698889 307.584 
L 157.062299 307.584 
z
" clip-path="url(#p369a40d660)" style="fill: #1f77b4; opacity: 0.4"/>
   </g>
   <g id="patch_24">
    <path d="M 159.698889 307.584 
L 162.335479 307.584 
L 162.335479 307.584 
L 159.698889 307.584 
z
" clip-path="url(#p369a40d660)" style="fill: #1f77b4; opacity: 0.4"/>
   </g>
   <g id="patch_25">
    <path d="M 162.335479 307.584 
L 164.972069 307.584 
L 164.972069 307.584 
L 162.335479 307.584 
z
" clip-path="url(#p369a40d660)" style="fill: #1f77b4; opacity: 0.4"/>
   </g>
   <g id="patch_26">
    <path d="M 164.972069 307.584 
L 167.608659 307.584 
L 167.608659 307.584 
L 164.972069 307.584 
z
" clip-path="url(#p369a40d660)" style="fill: #1f77b4; opacity: 0.4"/>
   </g>
   <g id="patch_27">
    <path d="M 167.608659 307.584 
L 170.245249 307.584 
L 170.245249 307.584 
L 167.608659 307.584 
z
" clip-path="url(#p369a40d660)" style="fill: #1f77b4; opacity: 0.4"/>
   </g>
   <g id="patch_28">
    <path d="M 170.245249 307.584 
L 172.881839 307.584 
L 172.881839 307.584 
L 170.245249 307.584 
z
" clip-path="url(#p369a40d660)" style="fill: #1f77b4; opacity: 0.4"/>
   </g>
   <g id="patch_29">
    <path d="M 172.881839 307.584 
L 175.518429 307.584 
L 175.518429 307.584 
L 172.881839 307.584 
z
" clip-path="url(#p369a40d660)" style="fill: #1f77b4; opacity: 0.4"/>
   </g>
   <g id="patch_30">
    <path d="M 175.518429 307.584 
L 178.155019 307.584 
L 178.155019 307.584 
L 175.518429 307.584 
z
" clip-path="url(#p369a40d660)" style="fill: #1f77b4; opacity: 0.4"/>
   </g>
   <g id="patch_31">
    <path d="M 178.155019 307.584 
L 180.791609 307.584 
L 180.791609 307.584 
L 178.155019 307.584 
z
" clip-path="url(#p369a40d660)" style="fill: #1f77b4; opacity: 0.4"/>
   </g>
   <g id="patch_32">
    <path d="M 180.791609 307.584 
L 183.4282 307.584 
L 183.4282 307.584 
L 180.791609 307.584 
z
" clip-path="url(#p369a40d660)" style="fill: #1f77b4; opacity: 0.4"/>
   </g>
   <g id="patch_33">
    <path d="M 183.4282 307.584 
L 186.06479 307.584 
L 186.06479 307.584 
L 183.4282 307.584 
z
" clip-path="url(#p369a40d660)" style="fill: #1f77b4; opacity: 0.4"/>
   </g>
   <g id="patch_34">
    <path d="M 186.06479 307.584 
L 188.70138 307.584 
L 188.70138 307.584 
L 186.06479 307.584 
z
" clip-path="url(#p369a40d660)" style="fill: #1f77b4; opacity: 0.4"/>
   </g>
   <g id="patch_35">
    <path d="M 188.70138 307.584 
L 191.33797 307.584 
L 191.33797 307.584 
L 188.70138 307.584 
z
" clip-path="url(#p369a40d660)" style="fill: #1f77b4; opacity: 0.4"/>
   </g>
   <g id="patch_36">
    <path d="M 191.33797 307.584 
L 193.97456 307.584 
L 193.97456 307.584 
L 191.33797 307.584 
z
" clip-path="url(#p369a40d660)" style="fill: #1f77b4; opacity: 0.4"/>
   </g>
   <g id="patch_37">
    <path d="M 193.97456 307.584 
L 196.61115 307.584 
L 196.61115 307.584 
L 193.97456 307.584 
z
" clip-path="url(#p369a40d660)" style="fill: #1f77b4; opacity: 0.4"/>
   </g>
   <g id="patch_38">
    <path d="M 196.61115 307.584 
L 199.24774 307.584 
L 199.24774 307.584 
L 196.61115 307.584 
z
" clip-path="url(#p369a40d660)" style="fill: #1f77b4; opacity: 0.4"/>
   </g>
   <g id="patch_39">
    <path d="M 199.24774 307.584 
L 201.88433 307.584 
L 201.88433 307.584 
L 199.24774 307.584 
z
" clip-path="url(#p369a40d660)" style="fill: #1f77b4; opacity: 0.4"/>
   </g>
   <g id="patch_40">
    <path d="M 201.88433 307.584 
L 204.52092 307.584 
L 204.52092 307.584 
L 201.88433 307.584 
z
" clip-path="url(#p369a40d660)" style="fill: #1f77b4; opacity: 0.4"/>
   </g>
   <g id="patch_41">
    <path d="M 204.52092 307.584 
L 207.15751 307.584 
L 207.15751 307.584 
L 204.52092 307.584 
z
" clip-path="url(#p369a40d660)" style="fill: #1f77b4; opacity: 0.4"/>
   </g>
   <g id="patch_42">
    <path d="M 207.15751 307.584 
L 209.7941 307.584 
L 209.7941 307.584 
L 207.15751 307.584 
z
" clip-path="url(#p369a40d660)" style="fill: #1f77b4; opacity: 0.4"/>
   </g>
   <g id="patch_43">
    <path d="M 209.7941 307.584 
L 212.43069 307.584 
L 212.43069 307.584 
L 209.7941 307.584 
z
" clip-path="url(#p369a40d660)" style="fill: #1f77b4; opacity: 0.4"/>
   </g>
   <g id="patch_44">
    <path d="M 212.43069 307.584 
L 215.06728 307.584 
L 215.06728 307.584 
L 212.43069 307.584 
z
" clip-path="url(#p369a40d660)" style="fill: #1f77b4; opacity: 0.4"/>
   </g>
   <g id="patch_45">
    <path d="M 215.06728 307.584 
L 217.70387 307.584 
L 217.70387 307.584 
L 215.06728 307.584 
z
" clip-path="url(#p369a40d660)" style="fill: #1f77b4; opacity: 0.4"/>
   </g>
   <g id="patch_46">
    <path d="M 217.70387 307.584 
L 220.34046 307.584 
L 220.34046 307.584 
L 217.70387 307.584 
z
" clip-path="url(#p369a40d660)" style="fill: #1f77b4; opacity: 0.4"/>
   </g>
   <g id="patch_47">
    <path d="M 220.34046 307.584 
L 222.97705 307.584 
L 222.97705 307.584 
L 220.34046 307.584 
z
" clip-path="url(#p369a40d660)" style="fill: #1f77b4; opacity: 0.4"/>
   </g>
   <g id="patch_48">
    <path d="M 222.97705 307.584 
L 225.61364 307.584 
L 225.61364 307.584 
L 222.97705 307.584 
z
" clip-path="url(#p369a40d660)" style="fill: #1f77b4; opacity: 0.4"/>
   </g>
   <g id="patch_49">
    <path d="M 225.61364 307.584 
L 228.25023 307.584 
L 228.25023 307.584 
L 225.61364 307.584 
z
" clip-path="url(#p369a40d660)" style="fill: #1f77b4; opacity: 0.4"/>
   </g>
   <g id="patch_50">
    <path d="M 228.25023 307.584 
L 230.88682 307.584 
L 230.88682 307.584 
L 228.25023 307.584 
z
" clip-path="url(#p369a40d660)" style="fill: #1f77b4; opacity: 0.4"/>
   </g>
   <g id="patch_51">
    <path d="M 230.88682 307.584 
L 233.52341 307.584 
L 233.52341 307.584 
L 230.88682 307.584 
z
" clip-path="url(#p369a40d660)" style="fill: #1f77b4; opacity: 0.4"/>
   </g>
   <g id="patch_52">
    <path d="M 233.52341 307.584 
L 236.16 307.584 
L 236.16 307.584 
L 233.52341 307.584 
z
" clip-path="url(#p369a40d660)" style="fill: #1f77b4; opacity: 0.4"/>
   </g>
   <g id="patch_53">
    <path d="M 236.16 307.584 
L 238.79659 307.584 
L 238.79659 54.144 
L 236.16 54.144 
z
" clip-path="url(#p369a40d660)" style="fill: #1f77b4; opacity: 0.4"/>
   </g>
   <g id="patch_54">
    <path d="M 238.79659 307.584 
L 241.43318 307.584 
L 241.43318 307.584 
L 238.79659 307.584 
z
" clip-path="url(#p369a40d660)" style="fill: #1f77b4; opacity: 0.4"/>
   </g>
   <g id="patch_55">
    <path d="M 241.43318 307.584 
L 244.06977 307.584 
L 244.06977 307.584 
L 241.43318 307.584 
z
" clip-path="url(#p369a40d660)" style="fill: #1f77b4; opacity: 0.4"/>
   </g>
   <g id="patch_56">
    <path d="M 244.06977 307.584 
L 246.70636 307.584 
L 246.70636 307.584 
L 244.06977 307.584 
z
" clip-path="url(#p369a40d660)" style="fill: #1f77b4; opacity: 0.4"/>
   </g>
   <g id="patch_57">
    <path d="M 246.70636 307.584 
L 249.34295 307.584 
L 249.34295 307.584 
L 246.70636 307.584 
z
" clip-path="url(#p369a40d660)" style="fill: #1f77b4; opacity: 0.4"/>
   </g>
   <g id="patch_58">
    <path d="M 249.34295 307.584 
L 251.97954 307.584 
L 251.97954 307.584 
L 249.34295 307.584 
z
" clip-path="url(#p369a40d660)" style="fill: #1f77b4; opacity: 0.4"/>
   </g>
   <g id="patch_59">
    <path d="M 251.97954 307.584 
L 254.61613 307.584 
L 254.61613 307.584 
L 251.97954 307.584 
z
" clip-path="url(#p369a40d660)" style="fill: #1f77b4; opacity: 0.4"/>
   </g>
   <g id="patch_60">
    <path d="M 254.61613 307.584 
L 257.25272 307.584 
L 257.25272 307.584 
L 254.61613 307.584 
z
" clip-path="url(#p369a40d660)" style="fill: #1f77b4; opacity: 0.4"/>
   </g>
   <g id="patch_61">
    <path d="M 257.25272 307.584 
L 259.88931 307.584 
L 259.88931 307.584 
L 257.25272 307.584 
z
" clip-path="url(#p369a40d660)" style="fill: #1f77b4; opacity: 0.4"/>
   </g>
   <g id="patch_62">
    <path d="M 259.88931 307.584 
L 262.5259 307.584 
L 262.5259 307.584 
L 259.88931 307.584 
z
" clip-path="url(#p369a40d660)" style="fill: #1f77b4; opacity: 0.4"/>
   </g>
   <g id="patch_63">
    <path d="M 262.5259 307.584 
L 265.16249 307.584 
L 265.16249 307.584 
L 262.5259 307.584 
z
" clip-path="url(#p369a40d660)" style="fill: #1f77b4; opacity: 0.4"/>
   </g>
   <g id="patch_64">
    <path d="M 265.16249 307.584 
L 267.79908 307.584 
L 267.79908 307.584 
L 265.16249 307.584 
z
" clip-path="url(#p369a40d660)" style="fill: #1f77b4; opacity: 0.4"/>
   </g>
   <g id="patch_65">
    <path d="M 267.79908 307.584 
L 270.43567 307.584 
L 270.43567 307.584 
L 267.79908 307.584 
z
" clip-path="url(#p369a40d660)" style="fill: #1f77b4; opacity: 0.4"/>
   </g>
   <g id="patch_66">
    <path d="M 270.43567 307.584 
L 273.07226 307.584 
L 273.07226 307.584 
L 270.43567 307.584 
z
" clip-path="url(#p369a40d660)" style="fill: #1f77b4; opacity: 0.4"/>
   </g>
   <g id="patch_67">
    <path d="M 273.07226 307.584 
L 275.70885 307.584 
L 275.70885 307.584 
L 273.07226 307.584 
z
" clip-path="url(#p369a40d660)" style="fill: #1f77b4; opacity: 0.4"/>
   </g>
   <g id="patch_68">
    <path d="M 275.70885 307.584 
L 278.34544 307.584 
L 278.34544 307.584 
L 275.70885 307.584 
z
" clip-path="url(#p369a40d660)" style="fill: #1f77b4; opacity: 0.4"/>
   </g>
   <g id="patch_69">
    <path d="M 278.34544 307.584 
L 280.98203 307.584 
L 280.98203 307.584 
L 278.34544 307.584 
z
" clip-path="url(#p369a40d660)" style="fill: #1f77b4; opacity: 0.4"/>
   </g>
   <g id="patch_70">
    <path d="M 280.98203 307.584 
L 283.61862 307.584 
L 283.61862 307.584 
L 280.98203 307.584 
z
" clip-path="url(#p369a40d660)" style="fill: #1f77b4; opacity: 0.4"/>
   </g>
   <g id="patch_71">
    <path d="M 283.61862 307.584 
L 286.25521 307.584 
L 286.25521 307.584 
L 283.61862 307.584 
z
" clip-path="url(#p369a40d660)" style="fill: #1f77b4; opacity: 0.4"/>
   </g>
   <g id="patch_72">
    <path d="M 286.25521 307.584 
L 288.8918 307.584 
L 288.8918 307.584 
L 286.25521 307.584 
z
" clip-path="url(#p369a40d660)" style="fill: #1f77b4; opacity: 0.4"/>
   </g>
   <g id="patch_73">
    <path d="M 288.8918 307.584 
L 291.528391 307.584 
L 291.528391 307.584 
L 288.8918 307.584 
z
" clip-path="url(#p369a40d660)" style="fill: #1f77b4; opacity: 0.4"/>
   </g>
   <g id="patch_74">
    <path d="M 291.528391 307.584 
L 294.164981 307.584 
L 294.164981 307.584 
L 291.528391 307.584 
z
" clip-path="url(#p369a40d660)" style="fill: #1f77b4; opacity: 0.4"/>
   </g>
   <g id="patch_75">
    <path d="M 294.164981 307.584 
L 296.801571 307.584 
L 296.801571 307.584 
L 294.164981 307.584 
z
" clip-path="url(#p369a40d660)" style="fill: #1f77b4; opacity: 0.4"/>
   </g>
   <g id="patch_76">
    <path d="M 296.801571 307.584 
L 299.438161 307.584 
L 299.438161 307.584 
L 296.801571 307.584 
z
" clip-path="url(#p369a40d660)" style="fill: #1f77b4; opacity: 0.4"/>
   </g>
   <g id="patch_77">
    <path d="M 299.438161 307.584 
L 302.074751 307.584 
L 302.074751 307.584 
L 299.438161 307.584 
z
" clip-path="url(#p369a40d660)" style="fill: #1f77b4; opacity: 0.4"/>
   </g>
   <g id="patch_78">
    <path d="M 302.074751 307.584 
L 304.711341 307.584 
L 304.711341 307.584 
L 302.074751 307.584 
z
" clip-path="url(#p369a40d660)" style="fill: #1f77b4; opacity: 0.4"/>
   </g>
   <g id="patch_79">
    <path d="M 304.711341 307.584 
L 307.347931 307.584 
L 307.347931 307.584 
L 304.711341 307.584 
z
" clip-path="url(#p369a40d660)" style="fill: #1f77b4; opacity: 0.4"/>
   </g>
   <g id="patch_80">
    <path d="M 307.347931 307.584 
L 309.984521 307.584 
L 309.984521 307.584 
L 307.347931 307.584 
z
" clip-path="url(#p369a40d660)" style="fill: #1f77b4; opacity: 0.4"/>
   </g>
   <g id="patch_81">
    <path d="M 309.984521 307.584 
L 312.621111 307.584 
L 312.621111 307.584 
L 309.984521 307.584 
z
" clip-path="url(#p369a40d660)" style="fill: #1f77b4; opacity: 0.4"/>
   </g>
   <g id="patch_82">
    <path d="M 312.621111 307.584 
L 315.257701 307.584 
L 315.257701 307.584 
L 312.621111 307.584 
z
" clip-path="url(#p369a40d660)" style="fill: #1f77b4; opacity: 0.4"/>
   </g>
   <g id="patch_83">
    <path d="M 315.257701 307.584 
L 317.894291 307.584 
L 317.894291 307.584 
L 315.257701 307.584 
z
" clip-path="url(#p369a40d660)" style="fill: #1f77b4; opacity: 0.4"/>
   </g>
   <g id="patch_84">
    <path d="M 317.894291 307.584 
L 320.530881 307.584 
L 320.530881 307.584 
L 317.894291 307.584 
z
" clip-path="url(#p369a40d660)" style="fill: #1f77b4; opacity: 0.4"/>
   </g>
   <g id="patch_85">
    <path d="M 320.530881 307.584 
L 323.167471 307.584 
L 323.167471 307.584 
L 320.530881 307.584 
z
" clip-path="url(#p369a40d660)" style="fill: #1f77b4; opacity: 0.4"/>
   </g>
   <g id="patch_86">
    <path d="M 323.167471 307.584 
L 325.804061 307.584 
L 325.804061 307.584 
L 323.167471 307.584 
z
" clip-path="url(#p369a40d660)" style="fill: #1f77b4; opacity: 0.4"/>
   </g>
   <g id="patch_87">
    <path d="M 325.804061 307.584 
L 328.440651 307.584 
L 328.440651 307.584 
L 325.804061 307.584 
z
" clip-path="url(#p369a40d660)" style="fill: #1f77b4; opacity: 0.4"/>
   </g>
   <g id="patch_88">
    <path d="M 328.440651 307.584 
L 331.077241 307.584 
L 331.077241 307.584 
L 328.440651 307.584 
z
" clip-path="url(#p369a40d660)" style="fill: #1f77b4; opacity: 0.4"/>
   </g>
   <g id="patch_89">
    <path d="M 331.077241 307.584 
L 333.713831 307.584 
L 333.713831 307.584 
L 331.077241 307.584 
z
" clip-path="url(#p369a40d660)" style="fill: #1f77b4; opacity: 0.4"/>
   </g>
   <g id="patch_90">
    <path d="M 333.713831 307.584 
L 336.350421 307.584 
L 336.350421 307.584 
L 333.713831 307.584 
z
" clip-path="url(#p369a40d660)" style="fill: #1f77b4; opacity: 0.4"/>
   </g>
   <g id="patch_91">
    <path d="M 336.350421 307.584 
L 338.987011 307.584 
L 338.987011 307.584 
L 336.350421 307.584 
z
" clip-path="url(#p369a40d660)" style="fill: #1f77b4; opacity: 0.4"/>
   </g>
   <g id="patch_92">
    <path d="M 338.987011 307.584 
L 341.623601 307.584 
L 341.623601 307.584 
L 338.987011 307.584 
z
" clip-path="url(#p369a40d660)" style="fill: #1f77b4; opacity: 0.4"/>
   </g>
   <g id="patch_93">
    <path d="M 341.623601 307.584 
L 344.260191 307.584 
L 344.260191 307.584 
L 341.623601 307.584 
z
" clip-path="url(#p369a40d660)" style="fill: #1f77b4; opacity: 0.4"/>
   </g>
   <g id="patch_94">
    <path d="M 344.260191 307.584 
L 346.896781 307.584 
L 346.896781 307.584 
L 344.260191 307.584 
z
" clip-path="url(#p369a40d660)" style="fill: #1f77b4; opacity: 0.4"/>
   </g>
   <g id="patch_95">
    <path d="M 346.896781 307.584 
L 349.533371 307.584 
L 349.533371 307.584 
L 346.896781 307.584 
z
" clip-path="url(#p369a40d660)" style="fill: #1f77b4; opacity: 0.4"/>
   </g>
   <g id="patch_96">
    <path d="M 349.533371 307.584 
L 352.169961 307.584 
L 352.169961 307.584 
L 349.533371 307.584 
z
" clip-path="url(#p369a40d660)" style="fill: #1f77b4; opacity: 0.4"/>
   </g>
   <g id="patch_97">
    <path d="M 352.169961 307.584 
L 354.806551 307.584 
L 354.806551 307.584 
L 352.169961 307.584 
z
" clip-path="url(#p369a40d660)" style="fill: #1f77b4; opacity: 0.4"/>
   </g>
   <g id="patch_98">
    <path d="M 354.806551 307.584 
L 357.443141 307.584 
L 357.443141 307.584 
L 354.806551 307.584 
z
" clip-path="url(#p369a40d660)" style="fill: #1f77b4; opacity: 0.4"/>
   </g>
   <g id="patch_99">
    <path d="M 357.443141 307.584 
L 360.079731 307.584 
L 360.079731 307.584 
L 357.443141 307.584 
z
" clip-path="url(#p369a40d660)" style="fill: #1f77b4; opacity: 0.4"/>
   </g>
   <g id="patch_100">
    <path d="M 360.079731 307.584 
L 362.716321 307.584 
L 362.716321 307.584 
L 360.079731 307.584 
z
" clip-path="url(#p369a40d660)" style="fill: #1f77b4; opacity: 0.4"/>
   </g>
   <g id="patch_101">
    <path d="M 362.716321 307.584 
L 365.352911 307.584 
L 365.352911 307.584 
L 362.716321 307.584 
z
" clip-path="url(#p369a40d660)" style="fill: #1f77b4; opacity: 0.4"/>
   </g>
   <g id="patch_102">
    <path d="M 365.352911 307.584 
L 367.989501 307.584 
L 367.989501 294.717793 
L 365.352911 294.717793 
z
" clip-path="url(#p369a40d660)" style="fill: #1f77b4; opacity: 0.4"/>
   </g>
   <g id="matplotlib.axis_1">
    <g id="xtick_1">
     <g id="line2d_1">
      <defs>
       <path id="m3affc41ef3" d="M 0 0 
L 0 -3.5 
" style="stroke: #000000; stroke-width: 0.8"/>
      </defs>
      <g>
       <use xlink:href="#m3affc41ef3" x="104.330499" y="307.584" style="stroke: #000000; stroke-width: 0.8"/>
      </g>
     </g>
     <g id="text_1">
      <!-- 99.0 -->
      <g transform="translate(93.197686 318.682437) scale(0.1 -0.1)">
       <defs>
        <path id="DejaVuSans-39" d="M 703 97 
L 703 672 
Q 941 559 1184 500 
Q 1428 441 1663 441 
Q 2288 441 2617 861 
Q 2947 1281 2994 2138 
Q 2813 1869 2534 1725 
Q 2256 1581 1919 1581 
Q 1219 1581 811 2004 
Q 403 2428 403 3163 
Q 403 3881 828 4315 
Q 1253 4750 1959 4750 
Q 2769 4750 3195 4129 
Q 3622 3509 3622 2328 
Q 3622 1225 3098 567 
Q 2575 -91 1691 -91 
Q 1453 -91 1209 -44 
Q 966 3 703 97 
z
M 1959 2075 
Q 2384 2075 2632 2365 
Q 2881 2656 2881 3163 
Q 2881 3666 2632 3958 
Q 2384 4250 1959 4250 
Q 1534 4250 1286 3958 
Q 1038 3666 1038 3163 
Q 1038 2656 1286 2365 
Q 1534 2075 1959 2075 
z
" transform="scale(0.015625)"/>
        <path id="DejaVuSans-2e" d="M 684 794 
L 1344 794 
L 1344 0 
L 684 0 
L 684 794 
z
" transform="scale(0.015625)"/>
        <path id="DejaVuSans-30" d="M 2034 4250 
Q 1547 4250 1301 3770 
Q 1056 3291 1056 2328 
Q 1056 1369 1301 889 
Q 1547 409 2034 409 
Q 2525 409 2770 889 
Q 3016 1369 3016 2328 
Q 3016 3291 2770 3770 
Q 2525 4250 2034 4250 
z
M 2034 4750 
Q 2819 4750 3233 4129 
Q 3647 3509 3647 2328 
Q 3647 1150 3233 529 
Q 2819 -91 2034 -91 
Q 1250 -91 836 529 
Q 422 1150 422 2328 
Q 422 3509 836 4129 
Q 1250 4750 2034 4750 
z
" transform="scale(0.015625)"/>
       </defs>
       <use xlink:href="#DejaVuSans-39"/>
       <use xlink:href="#DejaVuSans-39" x="63.623047"/>
       <use xlink:href="#DejaVuSans-2e" x="127.246094"/>
       <use xlink:href="#DejaVuSans-30" x="159.033203"/>
      </g>
     </g>
    </g>
    <g id="xtick_2">
     <g id="line2d_2">
      <g>
       <use xlink:href="#m3affc41ef3" x="170.245249" y="307.584" style="stroke: #000000; stroke-width: 0.8"/>
      </g>
     </g>
     <g id="text_2">
      <!-- 99.5 -->
      <g transform="translate(159.112437 318.682437) scale(0.1 -0.1)">
       <defs>
        <path id="DejaVuSans-35" d="M 691 4666 
L 3169 4666 
L 3169 4134 
L 1269 4134 
L 1269 2991 
Q 1406 3038 1543 3061 
Q 1681 3084 1819 3084 
Q 2600 3084 3056 2656 
Q 3513 2228 3513 1497 
Q 3513 744 3044 326 
Q 2575 -91 1722 -91 
Q 1428 -91 1123 -41 
Q 819 9 494 109 
L 494 744 
Q 775 591 1075 516 
Q 1375 441 1709 441 
Q 2250 441 2565 725 
Q 2881 1009 2881 1497 
Q 2881 1984 2565 2268 
Q 2250 2553 1709 2553 
Q 1456 2553 1204 2497 
Q 953 2441 691 2322 
L 691 4666 
z
" transform="scale(0.015625)"/>
       </defs>
       <use xlink:href="#DejaVuSans-39"/>
       <use xlink:href="#DejaVuSans-39" x="63.623047"/>
       <use xlink:href="#DejaVuSans-2e" x="127.246094"/>
       <use xlink:href="#DejaVuSans-35" x="159.033203"/>
      </g>
     </g>
    </g>
    <g id="xtick_3">
     <g id="line2d_3">
      <g>
       <use xlink:href="#m3affc41ef3" x="236.16" y="307.584" style="stroke: #000000; stroke-width: 0.8"/>
      </g>
     </g>
     <g id="text_3">
      <!-- 100.0 -->
      <g transform="translate(221.845937 318.682437) scale(0.1 -0.1)">
       <defs>
        <path id="DejaVuSans-31" d="M 794 531 
L 1825 531 
L 1825 4091 
L 703 3866 
L 703 4441 
L 1819 4666 
L 2450 4666 
L 2450 531 
L 3481 531 
L 3481 0 
L 794 0 
L 794 531 
z
" transform="scale(0.015625)"/>
       </defs>
       <use xlink:href="#DejaVuSans-31"/>
       <use xlink:href="#DejaVuSans-30" x="63.623047"/>
       <use xlink:href="#DejaVuSans-30" x="127.246094"/>
       <use xlink:href="#DejaVuSans-2e" x="190.869141"/>
       <use xlink:href="#DejaVuSans-30" x="222.65625"/>
      </g>
     </g>
    </g>
    <g id="xtick_4">
     <g id="line2d_4">
      <g>
       <use xlink:href="#m3affc41ef3" x="302.074751" y="307.584" style="stroke: #000000; stroke-width: 0.8"/>
      </g>
     </g>
     <g id="text_4">
      <!-- 100.5 -->
      <g transform="translate(287.760688 318.682437) scale(0.1 -0.1)">
       <use xlink:href="#DejaVuSans-31"/>
       <use xlink:href="#DejaVuSans-30" x="63.623047"/>
       <use xlink:href="#DejaVuSans-30" x="127.246094"/>
       <use xlink:href="#DejaVuSans-2e" x="190.869141"/>
       <use xlink:href="#DejaVuSans-35" x="222.65625"/>
      </g>
     </g>
    </g>
    <g id="xtick_5">
     <g id="line2d_5">
      <g>
       <use xlink:href="#m3affc41ef3" x="367.989501" y="307.584" style="stroke: #000000; stroke-width: 0.8"/>
      </g>
     </g>
     <g id="text_5">
      <!-- 101.0 -->
      <g transform="translate(353.675439 318.682437) scale(0.1 -0.1)">
       <use xlink:href="#DejaVuSans-31"/>
       <use xlink:href="#DejaVuSans-30" x="63.623047"/>
       <use xlink:href="#DejaVuSans-31" x="127.246094"/>
       <use xlink:href="#DejaVuSans-2e" x="190.869141"/>
       <use xlink:href="#DejaVuSans-30" x="222.65625"/>
      </g>
     </g>
    </g>
    <g id="text_6">
     <!-- Time interval (ms) -->
     <g transform="translate(190.309219 332.360562) scale(0.1 -0.1)">
      <defs>
       <path id="DejaVuSans-54" d="M -19 4666 
L 3928 4666 
L 3928 4134 
L 2272 4134 
L 2272 0 
L 1638 0 
L 1638 4134 
L -19 4134 
L -19 4666 
z
" transform="scale(0.015625)"/>
       <path id="DejaVuSans-69" d="M 603 3500 
L 1178 3500 
L 1178 0 
L 603 0 
L 603 3500 
z
M 603 4863 
L 1178 4863 
L 1178 4134 
L 603 4134 
L 603 4863 
z
" transform="scale(0.015625)"/>
       <path id="DejaVuSans-6d" d="M 3328 2828 
Q 3544 3216 3844 3400 
Q 4144 3584 4550 3584 
Q 5097 3584 5394 3201 
Q 5691 2819 5691 2113 
L 5691 0 
L 5113 0 
L 5113 2094 
Q 5113 2597 4934 2840 
Q 4756 3084 4391 3084 
Q 3944 3084 3684 2787 
Q 3425 2491 3425 1978 
L 3425 0 
L 2847 0 
L 2847 2094 
Q 2847 2600 2669 2842 
Q 2491 3084 2119 3084 
Q 1678 3084 1418 2786 
Q 1159 2488 1159 1978 
L 1159 0 
L 581 0 
L 581 3500 
L 1159 3500 
L 1159 2956 
Q 1356 3278 1631 3431 
Q 1906 3584 2284 3584 
Q 2666 3584 2933 3390 
Q 3200 3197 3328 2828 
z
" transform="scale(0.015625)"/>
       <path id="DejaVuSans-65" d="M 3597 1894 
L 3597 1613 
L 953 1613 
Q 991 1019 1311 708 
Q 1631 397 2203 397 
Q 2534 397 2845 478 
Q 3156 559 3463 722 
L 3463 178 
Q 3153 47 2828 -22 
Q 2503 -91 2169 -91 
Q 1331 -91 842 396 
Q 353 884 353 1716 
Q 353 2575 817 3079 
Q 1281 3584 2069 3584 
Q 2775 3584 3186 3129 
Q 3597 2675 3597 1894 
z
M 3022 2063 
Q 3016 2534 2758 2815 
Q 2500 3097 2075 3097 
Q 1594 3097 1305 2825 
Q 1016 2553 972 2059 
L 3022 2063 
z
" transform="scale(0.015625)"/>
       <path id="DejaVuSans-20" transform="scale(0.015625)"/>
       <path id="DejaVuSans-6e" d="M 3513 2113 
L 3513 0 
L 2938 0 
L 2938 2094 
Q 2938 2591 2744 2837 
Q 2550 3084 2163 3084 
Q 1697 3084 1428 2787 
Q 1159 2491 1159 1978 
L 1159 0 
L 581 0 
L 581 3500 
L 1159 3500 
L 1159 2956 
Q 1366 3272 1645 3428 
Q 1925 3584 2291 3584 
Q 2894 3584 3203 3211 
Q 3513 2838 3513 2113 
z
" transform="scale(0.015625)"/>
       <path id="DejaVuSans-74" d="M 1172 4494 
L 1172 3500 
L 2356 3500 
L 2356 3053 
L 1172 3053 
L 1172 1153 
Q 1172 725 1289 603 
Q 1406 481 1766 481 
L 2356 481 
L 2356 0 
L 1766 0 
Q 1100 0 847 248 
Q 594 497 594 1153 
L 594 3053 
L 172 3053 
L 172 3500 
L 594 3500 
L 594 4494 
L 1172 4494 
z
" transform="scale(0.015625)"/>
       <path id="DejaVuSans-72" d="M 2631 2963 
Q 2534 3019 2420 3045 
Q 2306 3072 2169 3072 
Q 1681 3072 1420 2755 
Q 1159 2438 1159 1844 
L 1159 0 
L 581 0 
L 581 3500 
L 1159 3500 
L 1159 2956 
Q 1341 3275 1631 3429 
Q 1922 3584 2338 3584 
Q 2397 3584 2469 3576 
Q 2541 3569 2628 3553 
L 2631 2963 
z
" transform="scale(0.015625)"/>
       <path id="DejaVuSans-76" d="M 191 3500 
L 800 3500 
L 1894 563 
L 2988 3500 
L 3597 3500 
L 2284 0 
L 1503 0 
L 191 3500 
z
" transform="scale(0.015625)"/>
       <path id="DejaVuSans-61" d="M 2194 1759 
Q 1497 1759 1228 1600 
Q 959 1441 959 1056 
Q 959 750 1161 570 
Q 1363 391 1709 391 
Q 2188 391 2477 730 
Q 2766 1069 2766 1631 
L 2766 1759 
L 2194 1759 
z
M 3341 1997 
L 3341 0 
L 2766 0 
L 2766 531 
Q 2569 213 2275 61 
Q 1981 -91 1556 -91 
Q 1019 -91 701 211 
Q 384 513 384 1019 
Q 384 1609 779 1909 
Q 1175 2209 1959 2209 
L 2766 2209 
L 2766 2266 
Q 2766 2663 2505 2880 
Q 2244 3097 1772 3097 
Q 1472 3097 1187 3025 
Q 903 2953 641 2809 
L 641 3341 
Q 956 3463 1253 3523 
Q 1550 3584 1831 3584 
Q 2591 3584 2966 3190 
Q 3341 2797 3341 1997 
z
" transform="scale(0.015625)"/>
       <path id="DejaVuSans-6c" d="M 603 4863 
L 1178 4863 
L 1178 0 
L 603 0 
L 603 4863 
z
" transform="scale(0.015625)"/>
       <path id="DejaVuSans-28" d="M 1984 4856 
Q 1566 4138 1362 3434 
Q 1159 2731 1159 2009 
Q 1159 1288 1364 580 
Q 1569 -128 1984 -844 
L 1484 -844 
Q 1016 -109 783 600 
Q 550 1309 550 2009 
Q 550 2706 781 3412 
Q 1013 4119 1484 4856 
L 1984 4856 
z
" transform="scale(0.015625)"/>
       <path id="DejaVuSans-73" d="M 2834 3397 
L 2834 2853 
Q 2591 2978 2328 3040 
Q 2066 3103 1784 3103 
Q 1356 3103 1142 2972 
Q 928 2841 928 2578 
Q 928 2378 1081 2264 
Q 1234 2150 1697 2047 
L 1894 2003 
Q 2506 1872 2764 1633 
Q 3022 1394 3022 966 
Q 3022 478 2636 193 
Q 2250 -91 1575 -91 
Q 1294 -91 989 -36 
Q 684 19 347 128 
L 347 722 
Q 666 556 975 473 
Q 1284 391 1588 391 
Q 1994 391 2212 530 
Q 2431 669 2431 922 
Q 2431 1156 2273 1281 
Q 2116 1406 1581 1522 
L 1381 1569 
Q 847 1681 609 1914 
Q 372 2147 372 2553 
Q 372 3047 722 3315 
Q 1072 3584 1716 3584 
Q 2034 3584 2315 3537 
Q 2597 3491 2834 3397 
z
" transform="scale(0.015625)"/>
       <path id="DejaVuSans-29" d="M 513 4856 
L 1013 4856 
Q 1481 4119 1714 3412 
Q 1947 2706 1947 2009 
Q 1947 1309 1714 600 
Q 1481 -109 1013 -844 
L 513 -844 
Q 928 -128 1133 580 
Q 1338 1288 1338 2009 
Q 1338 2731 1133 3434 
Q 928 4138 513 4856 
z
" transform="scale(0.015625)"/>
      </defs>
      <use xlink:href="#DejaVuSans-54"/>
      <use xlink:href="#DejaVuSans-69" x="57.958984"/>
      <use xlink:href="#DejaVuSans-6d" x="85.742188"/>
      <use xlink:href="#DejaVuSans-65" x="183.154297"/>
      <use xlink:href="#DejaVuSans-20" x="244.677734"/>
      <use xlink:href="#DejaVuSans-69" x="276.464844"/>
      <use xlink:href="#DejaVuSans-6e" x="304.248047"/>
      <use xlink:href="#DejaVuSans-74" x="367.626953"/>
      <use xlink:href="#DejaVuSans-65" x="406.835938"/>
      <use xlink:href="#DejaVuSans-72" x="468.359375"/>
      <use xlink:href="#DejaVuSans-76" x="509.472656"/>
      <use xlink:href="#DejaVuSans-61" x="568.652344"/>
      <use xlink:href="#DejaVuSans-6c" x="629.931641"/>
      <use xlink:href="#DejaVuSans-20" x="657.714844"/>
      <use xlink:href="#DejaVuSans-28" x="689.501953"/>
      <use xlink:href="#DejaVuSans-6d" x="728.515625"/>
      <use xlink:href="#DejaVuSans-73" x="825.927734"/>
      <use xlink:href="#DejaVuSans-29" x="878.027344"/>
     </g>
    </g>
   </g>
   <g id="matplotlib.axis_2">
    <g id="ytick_1">
     <g id="line2d_6">
      <defs>
       <path id="mc50af2814c" d="M 0 0 
L 3.5 0 
" style="stroke: #000000; stroke-width: 0.8"/>
      </defs>
      <g>
       <use xlink:href="#mc50af2814c" x="57.6" y="307.584" style="stroke: #000000; stroke-width: 0.8"/>
      </g>
     </g>
     <g id="text_7">
      <!-- 0 -->
      <g transform="translate(47.7375 311.383219) scale(0.1 -0.1)">
       <use xlink:href="#DejaVuSans-30"/>
      </g>
     </g>
    </g>
    <g id="ytick_2">
     <g id="line2d_7">
      <g>
       <use xlink:href="#mc50af2814c" x="57.6" y="251.264" style="stroke: #000000; stroke-width: 0.8"/>
      </g>
     </g>
     <g id="text_8">
      <!-- 10 -->
      <g transform="translate(41.375 255.063219) scale(0.1 -0.1)">
       <use xlink:href="#DejaVuSans-31"/>
       <use xlink:href="#DejaVuSans-30" x="63.623047"/>
      </g>
     </g>
    </g>
    <g id="ytick_3">
     <g id="line2d_8">
      <g>
       <use xlink:href="#mc50af2814c" x="57.6" y="194.944" style="stroke: #000000; stroke-width: 0.8"/>
      </g>
     </g>
     <g id="text_9">
      <!-- 20 -->
      <g transform="translate(41.375 198.743219) scale(0.1 -0.1)">
       <defs>
        <path id="DejaVuSans-32" d="M 1228 531 
L 3431 531 
L 3431 0 
L 469 0 
L 469 531 
Q 828 903 1448 1529 
Q 2069 2156 2228 2338 
Q 2531 2678 2651 2914 
Q 2772 3150 2772 3378 
Q 2772 3750 2511 3984 
Q 2250 4219 1831 4219 
Q 1534 4219 1204 4116 
Q 875 4013 500 3803 
L 500 4441 
Q 881 4594 1212 4672 
Q 1544 4750 1819 4750 
Q 2544 4750 2975 4387 
Q 3406 4025 3406 3419 
Q 3406 3131 3298 2873 
Q 3191 2616 2906 2266 
Q 2828 2175 2409 1742 
Q 1991 1309 1228 531 
z
" transform="scale(0.015625)"/>
       </defs>
       <use xlink:href="#DejaVuSans-32"/>
       <use xlink:href="#DejaVuSans-30" x="63.623047"/>
      </g>
     </g>
    </g>
    <g id="ytick_4">
     <g id="line2d_9">
      <g>
       <use xlink:href="#mc50af2814c" x="57.6" y="138.624" style="stroke: #000000; stroke-width: 0.8"/>
      </g>
     </g>
     <g id="text_10">
      <!-- 30 -->
      <g transform="translate(41.375 142.423219) scale(0.1 -0.1)">
       <defs>
        <path id="DejaVuSans-33" d="M 2597 2516 
Q 3050 2419 3304 2112 
Q 3559 1806 3559 1356 
Q 3559 666 3084 287 
Q 2609 -91 1734 -91 
Q 1441 -91 1130 -33 
Q 819 25 488 141 
L 488 750 
Q 750 597 1062 519 
Q 1375 441 1716 441 
Q 2309 441 2620 675 
Q 2931 909 2931 1356 
Q 2931 1769 2642 2001 
Q 2353 2234 1838 2234 
L 1294 2234 
L 1294 2753 
L 1863 2753 
Q 2328 2753 2575 2939 
Q 2822 3125 2822 3475 
Q 2822 3834 2567 4026 
Q 2313 4219 1838 4219 
Q 1578 4219 1281 4162 
Q 984 4106 628 3988 
L 628 4550 
Q 988 4650 1302 4700 
Q 1616 4750 1894 4750 
Q 2613 4750 3031 4423 
Q 3450 4097 3450 3541 
Q 3450 3153 3228 2886 
Q 3006 2619 2597 2516 
z
" transform="scale(0.015625)"/>
       </defs>
       <use xlink:href="#DejaVuSans-33"/>
       <use xlink:href="#DejaVuSans-30" x="63.623047"/>
      </g>
     </g>
    </g>
    <g id="ytick_5">
     <g id="line2d_10">
      <g>
       <use xlink:href="#mc50af2814c" x="57.6" y="82.304" style="stroke: #000000; stroke-width: 0.8"/>
      </g>
     </g>
     <g id="text_11">
      <!-- 40 -->
      <g transform="translate(41.375 86.103219) scale(0.1 -0.1)">
       <defs>
        <path id="DejaVuSans-34" d="M 2419 4116 
L 825 1625 
L 2419 1625 
L 2419 4116 
z
M 2253 4666 
L 3047 4666 
L 3047 1625 
L 3713 1625 
L 3713 1100 
L 3047 1100 
L 3047 0 
L 2419 0 
L 2419 1100 
L 313 1100 
L 313 1709 
L 2253 4666 
z
" transform="scale(0.015625)"/>
       </defs>
       <use xlink:href="#DejaVuSans-34"/>
       <use xlink:href="#DejaVuSans-30" x="63.623047"/>
      </g>
     </g>
    </g>
    <g id="text_12">
     <!-- Density -->
     <g transform="translate(35.295312 193.536594) rotate(-90) scale(0.1 -0.1)">
      <defs>
       <path id="DejaVuSans-44" d="M 1259 4147 
L 1259 519 
L 2022 519 
Q 2988 519 3436 956 
Q 3884 1394 3884 2338 
Q 3884 3275 3436 3711 
Q 2988 4147 2022 4147 
L 1259 4147 
z
M 628 4666 
L 1925 4666 
Q 3281 4666 3915 4102 
Q 4550 3538 4550 2338 
Q 4550 1131 3912 565 
Q 3275 0 1925 0 
L 628 0 
L 628 4666 
z
" transform="scale(0.015625)"/>
       <path id="DejaVuSans-79" d="M 2059 -325 
Q 1816 -950 1584 -1140 
Q 1353 -1331 966 -1331 
L 506 -1331 
L 506 -850 
L 844 -850 
Q 1081 -850 1212 -737 
Q 1344 -625 1503 -206 
L 1606 56 
L 191 3500 
L 800 3500 
L 1894 763 
L 2988 3500 
L 3597 3500 
L 2059 -325 
z
" transform="scale(0.015625)"/>
      </defs>
      <use xlink:href="#DejaVuSans-44"/>
      <use xlink:href="#DejaVuSans-65" x="77.001953"/>
      <use xlink:href="#DejaVuSans-6e" x="138.525391"/>
      <use xlink:href="#DejaVuSans-73" x="201.904297"/>
      <use xlink:href="#DejaVuSans-69" x="254.003906"/>
      <use xlink:href="#DejaVuSans-74" x="281.787109"/>
      <use xlink:href="#DejaVuSans-79" x="320.996094"/>
     </g>
    </g>
   </g>
   <g id="line2d_11">
    <path d="M 73.832727 307.566421 
L 81.989877 307.442544 
L 88.515596 307.112159 
L 103.198465 306.011363 
L 106.461325 306.035965 
L 111.355614 306.337697 
L 122.775624 307.27889 
L 129.301343 307.506527 
L 140.721352 307.581389 
L 201.084258 307.515829 
L 205.978547 307.264342 
L 209.241407 306.796677 
L 210.872837 306.395199 
L 212.504267 305.834633 
L 214.135697 305.075189 
L 215.767127 304.07753 
L 217.398556 302.807746 
L 219.029986 301.243551 
L 220.661416 299.381093 
L 222.292846 297.241374 
L 225.555706 292.364426 
L 228.818566 287.380106 
L 230.449995 285.187807 
L 232.081425 283.388838 
L 233.712855 282.109944 
L 235.344285 281.445366 
L 236.975715 281.445366 
L 238.607145 282.109944 
L 240.238575 283.388838 
L 241.870005 285.187807 
L 243.501434 287.380106 
L 250.027154 297.241374 
L 251.658584 299.381093 
L 253.290014 301.243551 
L 254.921444 302.807746 
L 256.552873 304.07753 
L 258.184303 305.075189 
L 259.815733 305.834633 
L 261.447163 306.395199 
L 263.078593 306.796677 
L 266.341453 307.264342 
L 269.604312 307.466921 
L 276.130032 307.572469 
L 312.021489 307.584 
L 344.650087 307.488569 
L 351.175806 307.244956 
L 359.332956 306.657589 
L 364.227245 306.340874 
L 369.121535 306.260988 
L 374.015825 306.467267 
L 388.698693 307.416842 
L 396.855843 307.560372 
L 398.487273 307.569211 
L 398.487273 307.569211 
" clip-path="url(#p369a40d660)" style="fill: none; stroke: #1f77b4; stroke-width: 1.5; stroke-linecap: square"/>
   </g>
   <g id="patch_103">
    <path d="M 57.6 307.584 
L 57.6 41.472 
" style="fill: none; stroke: #000000; stroke-width: 0.8; stroke-linejoin: miter; stroke-linecap: square"/>
   </g>
   <g id="patch_104">
    <path d="M 414.72 307.584 
L 414.72 41.472 
" style="fill: none; stroke: #000000; stroke-width: 0.8; stroke-linejoin: miter; stroke-linecap: square"/>
   </g>
   <g id="patch_105">
    <path d="M 57.6 307.584 
L 414.72 307.584 
" style="fill: none; stroke: #000000; stroke-width: 0.8; stroke-linejoin: miter; stroke-linecap: square"/>
   </g>
   <g id="patch_106">
    <path d="M 57.6 41.472 
L 414.72 41.472 
" style="fill: none; stroke: #000000; stroke-width: 0.8; stroke-linejoin: miter; stroke-linecap: square"/>
   </g>
  </g>
 </g>
 <defs>
  <clipPath id="p369a40d660">
   <rect x="57.6" y="41.472" width="357.12" height="266.112"/>
  </clipPath>
 </defs>
</svg>
